<svg id="Capa_1" enable-background="new 0 0 512 512" height="512" viewBox="0 0 512 512" width="512" xmlns="http://www.w3.org/2000/svg"><path d="m512 256c0-123.414-102.018-256-256-256-57.246 0-111.313 19.516-156.387 54.569-6.533 5.083-7.72 14.502-2.622 21.05 5.098 6.519 14.473 7.749 21.05 2.622 39.741-30.908 87.451-47.241 137.959-47.241 97.745 0 180.892 62.752 211.875 150h-31.875c-30.146-72.202-101.177-120-180-120-107.52 0-195 87.48-195 195 0 29.399 6.416 57.671 19.058 84.053 3.643 7.617 12.727 10.577 19.995 7.046 7.471-3.574 10.635-12.524 7.046-19.995-10.679-22.31-16.099-46.231-16.099-71.104 0-85.919 66.031-156.627 150-164.24v30.075c-67.412 7.485-120 64.79-120 134.165 0 31.813 11.517 60.699 29.993 83.796l-64.12 64.12c-34.673-39.594-55.873-91.27-55.873-147.916 0-50.508 16.333-98.218 47.241-137.959 5.098-6.548 3.911-15.967-2.622-21.05-6.519-5.112-15.967-3.896-21.05 2.622-35.053 45.074-54.569 99.141-54.569 156.387 0 138.925 116.288 256 256 256 138.797 0 256-116.293 256-256zm-256-105c8.291 0 15-6.709 15-15v-43.819c63.519 5.859 118.958 47.82 140.581 108.829 2.124 5.991 7.778 9.99 14.136 9.99h50.748c2.964 14.544 4.536 29.592 4.536 45 0 56.646-21.2 108.322-55.873 147.916l-21.207-21.207c29.27-34.118 47.079-78.338 47.079-126.709 0-8.291-6.709-15-15-15h-46.005c-4.772-42.136-29.233-80.283-66.465-101.88-7.192-4.175-16.362-1.714-20.508 5.449-4.16 7.178-1.714 16.348 5.449 20.508 32.402 18.779 52.529 53.628 52.529 90.923 0 57.891-47.109 105-105 105-52.755 0-96.127-39.25-103.484-90h43.484c8.291 0 15-6.709 15-15 0-24.814 20.186-45 45-45s45 20.186 45 45-20.186 45-45 45c-8.335 0-16.494-2.3-23.555-6.65-7.09-4.38-16.318-2.139-20.64 4.907-4.351 7.061-2.139 16.304 4.907 20.64 11.808 7.265 25.387 11.103 39.288 11.103 41.353 0 75-33.647 75-75s-33.647-75-75-75c-36.226 0-66.519 25.811-73.491 60h-29.993c7.357-50.75 50.729-90 103.484-90zm-147.916 274.127 64.12-64.12c23.097 18.476 51.983 29.993 83.796 29.993 69.307 0 125.911-52.685 133.484-120h30.842c-7.602 83.979-78.398 150-164.326 150-24.873 0-48.794-5.42-71.104-16.099-7.427-3.604-16.406-.439-19.995 7.046-3.589 7.471-.425 16.421 7.046 19.995 26.382 12.642 54.654 19.058 84.053 19.058 48.371 0 92.591-17.809 126.709-47.08l21.207 21.207c-39.594 34.673-91.27 55.873-147.916 55.873s-108.322-21.2-147.916-55.873z"/></svg>